<svg width="19" height="19" viewBox="0 0 19 19" fill="none" xmlns="http://www.w3.org/2000/svg">
<path d="M0.536 18.368C0.44 17.456 0.368 16.616 0.32 15.848C0.272 15.032 0.248 14.264 0.248 13.544C0.296 10.136 0.824 7.4 1.832 5.336C2.888 3.272 4.016 1.688 5.216 0.583997L8.024 2.888C7.256 3.848 6.68 4.856 6.296 5.912C5.96 6.92 5.792 8.264 5.792 9.944C5.792 11.24 5.816 12.536 5.864 13.832C5.96 15.128 6.032 16.208 6.08 17.072C6.176 17.936 6.224 18.368 6.224 18.368H0.536ZM10.616 18.368C10.52 17.456 10.448 16.616 10.4 15.848C10.352 15.032 10.328 14.264 10.328 13.544C10.376 10.136 10.904 7.4 11.912 5.336C12.968 3.272 14.096 1.688 15.296 0.583997L18.104 2.888C17.336 3.848 16.76 4.856 16.376 5.912C16.04 6.92 15.872 8.264 15.872 9.944C15.872 11.24 15.896 12.536 15.944 13.832C16.04 15.128 16.112 16.208 16.16 17.072C16.256 17.936 16.304 18.368 16.304 18.368H10.616Z" fill="white"/>
</svg>
