<svg width="20" height="20" viewBox="0 0 20 20" fill="none" xmlns="http://www.w3.org/2000/svg">
<path d="M10.72 0.0302736C9.28949 -0.0738612 7.8533 0.13124 6.50909 0.631634C5.16489 1.13203 3.94418 1.91598 2.92996 2.9302C1.91574 3.94442 1.13178 5.16513 0.63139 6.50934C0.130996 7.85354 -0.0741053 9.28973 0.0300295 10.7203C0.390029 16.0103 5.01003 20.0003 10.31 20.0003H14C14.55 20.0003 15 19.5503 15 19.0003C15 18.4503 14.55 18.0003 14 18.0003H10.33C6.60003 18.0003 3.18003 15.5803 2.25003 11.9703C0.76003 6.17027 6.16003 0.760274 11.96 2.26027C15.58 3.18027 18 6.60027 18 10.3303V11.4303C18 12.2203 17.29 13.0003 16.5 13.0003C15.71 13.0003 15 12.2203 15 11.4303V10.1803C15 7.67027 13.22 5.41027 10.74 5.06027C9.95099 4.94295 9.14533 5.01581 8.39014 5.27279C7.63495 5.52977 6.95208 5.96344 6.39837 6.53769C5.84466 7.11194 5.43615 7.81016 5.20684 8.57421C4.97752 9.33825 4.93405 10.146 5.08003 10.9303C5.25542 11.8752 5.69965 12.7496 6.35947 13.4484C7.01929 14.1473 7.86668 14.6409 8.80003 14.8703C10.64 15.3003 12.39 14.7103 13.54 13.5403C14.43 14.7603 16.21 15.4003 17.84 14.7503C19.18 14.2203 20 12.8403 20 11.4003V10.3203C20 5.01027 16.01 0.390274 10.72 0.0302736ZM10 13.0003C8.34003 13.0003 7.00003 11.6603 7.00003 10.0003C7.00003 8.34027 8.34003 7.00027 10 7.00027C11.66 7.00027 13 8.34027 13 10.0003C13 11.6603 11.66 13.0003 10 13.0003Z" fill="white"/>
</svg>
