<svg width="23" height="21" viewBox="0 0 23 21" fill="none" xmlns="http://www.w3.org/2000/svg">
<path fill-rule="evenodd" clip-rule="evenodd" d="M7.49836 0.708496H15.74C19.5325 0.708496 22.6079 3.49176 22.6079 6.92392V14.3824C22.6079 17.8146 19.5325 20.5978 15.74 20.5978H7.49836C3.70586 20.5978 0.630371 17.8146 0.630371 14.3824V6.92392C0.630371 3.49176 3.70586 0.708496 7.49836 0.708496ZM15.74 18.7332C18.391 18.7332 20.5475 16.7816 20.5475 14.3824V6.92396C20.5475 4.52482 18.391 2.57318 15.74 2.57318H7.49836C4.84732 2.57318 2.69077 4.52482 2.69077 6.92396V14.3824C2.69077 16.7816 4.84732 18.7332 7.49836 18.7332H15.74Z" fill="white"/>
<path fill-rule="evenodd" clip-rule="evenodd" d="M6.12476 10.6532C6.12476 7.90726 8.58487 5.68091 11.6192 5.68091C14.6534 5.68091 17.1136 7.90726 17.1136 10.6532C17.1136 13.3992 14.6534 15.6255 11.6192 15.6255C8.58487 15.6255 6.12476 13.3992 6.12476 10.6532ZM8.18515 10.6532C8.18515 12.3662 9.72633 13.7609 11.6192 13.7609C13.512 13.7609 15.0532 12.3662 15.0532 10.6532C15.0532 8.93898 13.512 7.54547 11.6192 7.54547C9.72633 7.54547 8.18515 8.93898 8.18515 10.6532Z" fill="white"/>
<ellipse cx="17.5256" cy="5.30795" rx="0.732132" ry="0.662567" fill="white"/>
</svg>
