<svg width="12" height="20" viewBox="0 0 12 20" fill="none" xmlns="http://www.w3.org/2000/svg">
<path d="M1.8 0.400391C1.32261 0.400391 0.864773 0.590033 0.527208 0.927598C0.189642 1.26516 0 1.723 0 2.20039V17.8004C0 18.2778 0.189642 18.7356 0.527208 19.0732C0.864773 19.4107 1.32261 19.6004 1.8 19.6004H10.2C10.6774 19.6004 11.1352 19.4107 11.4728 19.0732C11.8104 18.7356 12 18.2778 12 17.8004V2.20039C12 1.723 11.8104 1.26516 11.4728 0.927598C11.1352 0.590033 10.6774 0.400391 10.2 0.400391H1.8ZM4.8 14.8004H7.2C7.35913 14.8004 7.51174 14.8636 7.62426 14.9761C7.73679 15.0886 7.8 15.2413 7.8 15.4004C7.8 15.5595 7.73679 15.7121 7.62426 15.8247C7.51174 15.9372 7.35913 16.0004 7.2 16.0004H4.8C4.64087 16.0004 4.48826 15.9372 4.37574 15.8247C4.26321 15.7121 4.2 15.5595 4.2 15.4004C4.2 15.2413 4.26321 15.0886 4.37574 14.9761C4.48826 14.8636 4.64087 14.8004 4.8 14.8004Z" fill="white"/>
</svg>
