<svg width="22" height="14" viewBox="0 0 22 14" fill="none" xmlns="http://www.w3.org/2000/svg">
<path fill-rule="evenodd" clip-rule="evenodd" d="M0.500002 6.99997C0.500002 7.19888 0.57902 7.38965 0.719671 7.5303C0.860325 7.67095 1.05109 7.74997 1.25 7.74997L18.9395 7.74997L14.219 12.469C14.0782 12.6098 13.9991 12.8008 13.9991 13C13.9991 13.1991 14.0782 13.3901 14.219 13.531C14.3598 13.6718 14.5508 13.7509 14.75 13.7509C14.9492 13.7509 15.1402 13.6718 15.281 13.531L21.281 7.53097C21.3508 7.4613 21.4063 7.37854 21.4441 7.28742C21.4819 7.1963 21.5013 7.09862 21.5013 6.99997C21.5013 6.90132 21.4819 6.80364 21.4441 6.71252C21.4063 6.6214 21.3508 6.53864 21.281 6.46897L15.281 0.468971C15.2113 0.399239 15.1285 0.343925 15.0374 0.306186C14.9463 0.268447 14.8486 0.249023 14.75 0.249023C14.5508 0.249023 14.3598 0.328141 14.219 0.468971C14.0782 0.609801 13.9991 0.800807 13.9991 0.999971C13.9991 1.19913 14.0782 1.39014 14.219 1.53097L18.9395 6.24997L1.25 6.24997C1.05109 6.24997 0.860325 6.32899 0.719671 6.46964C0.57902 6.61029 0.500002 6.80106 0.500002 6.99997Z" fill="#FF6333"/>
</svg>
