<svg width="22" height="15" viewBox="0 0 22 15" fill="none" xmlns="http://www.w3.org/2000/svg">
<path fill-rule="evenodd" clip-rule="evenodd" d="M0.500002 7.49997C0.500002 7.69888 0.57902 7.88965 0.719671 8.0303C0.860325 8.17095 1.05109 8.24997 1.25 8.24997H18.9395L14.219 12.969C14.0782 13.1098 13.9991 13.3008 13.9991 13.5C13.9991 13.6991 14.0782 13.8901 14.219 14.031C14.3598 14.1718 14.5508 14.2509 14.75 14.2509C14.9492 14.2509 15.1402 14.1718 15.281 14.031L21.281 8.03097C21.3508 7.9613 21.4063 7.87854 21.4441 7.78742C21.4819 7.6963 21.5013 7.59862 21.5013 7.49997C21.5013 7.40132 21.4819 7.30364 21.4441 7.21252C21.4063 7.1214 21.3508 7.03864 21.281 6.96897L15.281 0.968971C15.2113 0.899239 15.1285 0.843925 15.0374 0.806186C14.9463 0.768447 14.8486 0.749023 14.75 0.749023C14.5508 0.749023 14.3598 0.828141 14.219 0.968971C14.0782 1.1098 13.9991 1.30081 13.9991 1.49997C13.9991 1.69913 14.0782 1.89014 14.219 2.03097L18.9395 6.74997L1.25 6.74997C1.05109 6.74997 0.860325 6.82899 0.719671 6.96964C0.57902 7.11029 0.500002 7.30106 0.500002 7.49997Z" fill="white"/>
</svg>
