<svg width="23" height="17" viewBox="0 0 23 17" fill="none" xmlns="http://www.w3.org/2000/svg">
<path d="M22.6712 2.4297C21.8539 2.75414 20.983 2.9692 20.0751 3.07362C21.0091 2.56893 21.722 1.77584 22.0572 0.819913C21.1863 1.2898 20.2248 1.6217 19.2001 1.80692C18.3732 1.0101 17.1946 0.516602 15.9089 0.516602C13.4145 0.516602 11.4063 2.3489 11.4063 4.59515C11.4063 4.91835 11.4365 5.22912 11.5107 5.52497C7.76489 5.35964 4.45039 3.73493 2.22379 1.25996C1.83506 1.87032 1.60705 2.56893 1.60705 3.32099C1.60705 4.73313 2.4106 5.98491 3.60838 6.70962C2.88449 6.69719 2.17434 6.507 1.57271 6.20742C1.57271 6.21985 1.57271 6.23601 1.57271 6.25217C1.57271 8.23364 3.13449 9.87948 5.18252 10.2586C4.81577 10.3494 4.41605 10.3929 4.00123 10.3929C3.71277 10.3929 3.42157 10.378 3.14822 10.3233C3.732 11.938 5.38856 13.1252 7.3583 13.1637C5.82537 14.2489 3.87898 14.9028 1.77188 14.9028C1.40238 14.9028 1.04799 14.8878 0.693604 14.8468C2.68944 16.0116 5.05478 16.6766 7.60555 16.6766C15.8966 16.6766 20.4295 10.4612 20.4295 5.07373C20.4295 4.89348 20.4226 4.71945 20.413 4.54667C21.3072 3.97236 22.0585 3.25511 22.6712 2.4297Z" fill="white"/>
</svg>
